<?xml version="1.0" standalone="no"?>
<!DOCTYPE svg PUBLIC "-//W3C//DTD SVG 20010904//EN"
 "http://www.w3.org/TR/2001/REC-SVG-20010904/DTD/svg10.dtd">
<svg version="1.0" xmlns="http://www.w3.org/2000/svg"
 width="260.000000pt" height="260.000000pt" viewBox="0 0 260.000000 260.000000"
 preserveAspectRatio="xMidYMid meet">
<metadata>
Created by potrace 1.11, written by Peter Selinger 2001-2013
</metadata>
<g transform="translate(0.000000,260.000000) scale(0.100000,-0.100000)"
fill="#000000" stroke="none">
<path d="M2321 2013 c-55 -57 -203 -275 -288 -423 -107 -187 -264 -517 -344
-727 -13 -35 -26 -63 -29 -63 -3 0 -46 183 -97 408 l-91 407 14 65 c22 99 23
240 1 273 -32 50 -101 44 -126 -10 -14 -32 -13 -158 3 -255 l12 -77 -41 -123
c-160 -477 -362 -754 -604 -828 -86 -27 -219 -36 -296 -20 -136 28 -252 106
-303 205 -35 67 -37 170 -5 231 92 174 373 218 526 83 50 -43 90 -51 107 -20
14 27 -1 62 -40 95 -77 64 -174 96 -296 96 -187 0 -340 -93 -395 -239 -30 -79
-24 -202 14 -284 52 -114 191 -217 339 -252 129 -30 325 -12 445 41 213 94
385 321 543 716 l46 117 88 -383 c110 -484 101 -454 132 -462 16 -4 31 -1 39
7 7 8 50 106 96 219 113 284 229 527 349 740 57 99 104 179 106 178 1 -2 -4
-30 -12 -63 -67 -281 -79 -589 -29 -780 51 -197 175 -320 325 -320 64 0 65 0
68 28 5 38 -13 57 -52 57 -52 0 -137 49 -177 103 -70 94 -101 230 -101 443 1
214 36 397 127 662 50 147 54 176 26 192 -29 15 -31 14 -80 -37z"/>
</g>
</svg>
